<?xml version="1.0" encoding="UTF-8" standalone="no"?>
<svg
   version="1.0"
   width="300pt"
   height="470pt"
   viewBox="0 0 300 470"
   preserveAspectRatio="xMidYMid"
   id="svg55"
   sodipodi:docname="APC-NEW.svg"
   inkscape:version="1.3.2 (091e20ef0f, 2023-11-25, custom)"
   xmlns:inkscape="http://www.inkscape.org/namespaces/inkscape"
   xmlns:sodipodi="http://sodipodi.sourceforge.net/DTD/sodipodi-0.dtd"
   xmlns="http://www.w3.org/2000/svg"
   xmlns:svg="http://www.w3.org/2000/svg">
  <defs
     id="defs55" />
  <sodipodi:namedview
     id="namedview55"
     pagecolor="#ffffff"
     bordercolor="#000000"
     borderopacity="0.25"
     inkscape:showpageshadow="2"
     inkscape:pageopacity="0.0"
     inkscape:pagecheckerboard="0"
     inkscape:deskcolor="#d1d1d1"
     inkscape:document-units="pt"
     inkscape:zoom="0.90028971"
     inkscape:cx="276.02226"
     inkscape:cy="358.7734"
     inkscape:window-width="1280"
     inkscape:window-height="728"
     inkscape:window-x="0"
     inkscape:window-y="0"
     inkscape:window-maximized="1"
     inkscape:current-layer="svg55" />
  <metadata
     id="metadata1">
Created by potrace 1.10, written by Peter Selinger 2001-2011
</metadata>
  <g
     transform="matrix(0.1,0,0,-0.1,0,489)"
     fill="#000000"
     stroke="none"
     id="g55"
     style="display:inline">
    <path
       d="m 1360,4093 c -19,-2 -44,-7 -55,-12 -11,-5 -47,-16 -80,-26 -33,-9 -98,-35 -145,-57 -75,-36 -108,-58 -219,-143 -14,-11 -38,-33 -53,-50 -14,-16 -41,-46 -58,-65 -31,-33 -130,-176 -130,-186 0,-3 -11,-29 -24,-59 -74,-161 -101,-297 -101,-505 0,-147 3,-177 28,-275 33,-128 119,-316 178,-386 22,-26 39,-52 39,-58 0,-6 6,-11 14,-11 22,0 26,-27 8,-43 -9,-8 -33,-17 -52,-21 -87,-16 -198,-91 -236,-160 -32,-59 -32,-45 -21,-581 8,-383 12,-451 30,-473 15,-19 53,-7 102,34 23,19 47,34 54,34 6,0 11,5 11,10 0,6 7,10 15,10 8,0 15,4 15,9 0,13 111,69 182,92 105,34 187,35 313,5 6,-1 25,-10 43,-19 17,-10 32,-15 32,-12 0,4 13,-3 29,-14 16,-12 32,-21 35,-21 4,0 16,-9 28,-20 12,-11 28,-20 35,-20 7,0 13,-4 13,-8 0,-5 11,-15 25,-22 13,-7 27,-21 30,-30 6,-18 45,-40 72,-40 8,0 39,25 68,55 29,30 58,55 63,55 6,0 17,7 25,15 24,23 157,82 215,94 69,14 179,14 239,-1 48,-11 194,-74 203,-87 15,-20 172,-121 189,-121 11,0 25,10 32,21 12,23 38,606 38,849 1,175 -8,197 -118,293 -29,26 -163,77 -201,77 -41,0 -32,22 45,115 22,28 47,64 55,80 8,17 18,32 22,35 4,3 21,39 38,80 17,41 35,83 41,93 11,20 25,80 48,215 22,126 13,308 -23,455 -14,59 -30,115 -35,125 -21,39 -61,133 -61,142 0,6 -3,10 -7,10 -5,0 -26,28 -48,63 -63,99 -182,223 -277,288 -31,21 -61,39 -67,39 -5,0 -11,4 -13,8 -6,15 -193,90 -277,111 -81,20 -236,26 -351,14 z m 245,-23 c 465,-53 835,-438 896,-933 37,-303 -66,-636 -264,-852 l -65,-71 84,-17 c 155,-29 252,-92 294,-188 l 21,-51 -16,-432 c -9,-237 -19,-454 -23,-483 l -7,-51 -85,65 c -260,197 -499,224 -747,82 -79,-45 -153,-107 -153,-128 0,-13 -8,-18 -30,-18 -22,0 -30,5 -30,18 0,39 -206,164 -320,194 -74,20 -208,19 -278,-1 -102,-30 -231,-101 -333,-186 -26,-21 -49,-38 -52,-38 -2,0 -7,123 -11,273 -4,149 -11,362 -16,473 -9,214 -5,255 32,310 46,69 184,141 305,160 l 43,6 -68,73 c -211,228 -310,573 -257,905 46,287 181,521 404,695 135,106 293,172 466,194 98,12 109,12 210,1 z"
       id="path8"
       style="display:inline" />
    <path
       d="m 1429,3981 c -44,-37 -93,-127 -134,-250 -24,-70 -29,-98 -21,-103 17,-10 184,-33 191,-26 3,3 4,96 3,207 l -3,201 z m 20,-185 c -1,-79 -5,-150 -9,-157 -6,-8 -24,-10 -66,-5 -32,4 -60,9 -63,11 -20,21 45,209 92,267 43,53 48,40 46,-116 z"
       id="path9" />
    <path
       d="m 1531,3805 4,-205 h 51 c 59,0 164,19 164,30 0,24 -58,176 -92,243 -36,69 -96,137 -121,137 -5,0 -7,-92 -6,-205 z m 53,129 c 9,-3 16,-12 16,-20 0,-8 5,-14 10,-14 6,0 10,-7 10,-15 0,-8 3,-15 8,-15 10,0 59,-106 74,-163 10,-40 10,-49 -2,-61 -13,-13 -84,-22 -115,-16 -5,1 -13,2 -17,1 -9,-1 -10,24 -9,149 1,183 -2,164 25,154 z"
       id="path10" />
    <path
       d="m 1288,3959 c -91,-46 -277,-236 -250,-253 15,-9 149,-56 160,-56 5,0 13,16 16,36 11,56 64,186 101,248 18,31 33,56 32,56 -1,-1 -28,-14 -59,-31 z m -34,-86 c -4,-16 -10,-32 -14,-38 -4,-5 -15,-35 -25,-65 -24,-75 -34,-85 -80,-74 -25,6 -41,17 -46,31 -7,19 3,33 68,97 81,82 108,95 97,49 z"
       id="path11" />
    <path
       d="m 1678,3963 c 34,-48 78,-145 107,-233 15,-47 29,-87 31,-88 4,-5 67,15 126,40 l 48,20 -22,32 c -46,66 -145,158 -219,206 -43,28 -81,50 -84,50 -4,0 2,-12 13,-27 z m 129,-95 c 136,-125 151,-154 93,-178 -57,-24 -72,-10 -108,97 -44,131 -43,134 15,81 z"
       id="path12" />
    <path
       d="m 1085,3908 c -27,-16 -81,-53 -119,-81 l -68,-50 33,-18 c 19,-10 37,-18 40,-19 3,0 22,24 43,54 20,29 60,74 88,100 58,53 54,57 -17,14 z"
       id="path13"
       style="display:inline" />
    <path
       d="m 1915,3889 c 30,-28 71,-75 91,-105 21,-30 38,-54 39,-54 0,0 17,8 38,19 l 37,19 -43,35 c -46,38 -197,137 -209,137 -4,0 17,-23 47,-51 z"
       id="path14"
       style="display:inline" />
    <path
       d="m 813,3683 c -42,-51 -66,-85 -101,-144 l -22,-37 67,-27 c 38,-15 74,-29 81,-32 7,-3 12,3 12,13 1,15 45,129 86,220 2,5 -12,19 -33,29 -21,11 -41,21 -44,23 -4,1 -24,-19 -46,-45 z m 79,-17 c 3,-14 -3,-42 -13,-63 -10,-21 -23,-54 -29,-74 -12,-44 -28,-52 -69,-36 -32,12 -53,48 -32,55 6,2 11,10 11,18 0,8 5,14 10,14 6,0 10,5 10,10 0,22 73,100 93,100 8,0 17,-11 19,-24 z"
       id="path15"
       style="display:inline" />
    <path
       d="m 2118,3699 c -21,-11 -38,-21 -38,-23 0,-2 15,-37 34,-79 19,-41 40,-94 47,-116 7,-23 16,-41 20,-41 13,0 139,59 139,65 0,30 -139,216 -159,215 -3,-1 -23,-10 -43,-21 z m 84,-54 c 16,-16 31,-38 34,-47 3,-10 10,-18 15,-18 5,0 9,-6 9,-14 0,-8 5,-16 11,-18 20,-7 1,-42 -29,-56 -35,-15 -59,-8 -67,21 -7,23 -13,38 -39,99 -19,43 -20,55 -3,61 23,10 42,2 69,-28 z"
       id="path16"
       style="display:inline" />
    <path
       d="m 966,3590 c -15,-33 -36,-85 -46,-115 l -19,-56 27,-10 c 29,-11 202,-59 214,-59 4,0 10,17 13,38 10,66 26,156 32,180 4,16 1,22 -11,22 -8,0 -49,14 -91,30 -42,17 -79,30 -84,30 -5,0 -20,-27 -35,-60 z m 121,4 c 66,-21 72,-34 60,-117 -7,-55 -14,-71 -33,-84 -17,-10 -28,-12 -37,-5 -6,5 -29,13 -50,16 -60,11 -87,27 -87,51 0,12 3,25 8,29 4,4 7,11 8,14 0,4 6,19 12,35 7,15 16,38 22,52 11,29 29,31 97,9 z"
       id="path17"
       style="display:inline" />
    <path
       d="m 1975,3629 c -22,-10 -64,-26 -93,-35 -47,-14 -53,-19 -49,-37 3,-12 11,-60 17,-107 7,-47 14,-90 16,-97 3,-13 21,-10 166,34 l 86,26 -18,52 c -19,55 -77,186 -82,184 -2,0 -21,-9 -43,-20 z m 39,-34 c 17,-18 56,-117 56,-145 0,-23 -11,-30 -80,-52 -63,-20 -90,-22 -90,-7 0,5 -4,8 -9,5 -5,-3 -14,29 -20,71 -10,67 -9,78 5,95 10,10 27,18 38,18 12,1 32,7 46,15 32,18 35,18 54,0 z"
       id="path18"
       style="display:inline" />
    <path
       d="m 1245,3548 c -9,-42 -34,-212 -31,-215 1,-2 36,-6 77,-9 l 74,-6 53,89 c 28,49 52,99 52,111 0,19 -6,22 -39,22 -36,0 -126,14 -163,26 -12,4 -19,-2 -23,-18 z m 133,-24 c 62,-8 64,-16 25,-93 -32,-62 -74,-94 -112,-84 -46,11 -51,23 -39,101 6,39 15,69 20,66 4,-3 8,0 8,5 0,13 23,13 98,5 z"
       id="path19"
       style="display:inline" />
    <path
       d="m 1670,3548 c -152,-18 -142,-14 -126,-51 16,-39 85,-149 99,-159 18,-11 95,-19 130,-13 l 34,7 -9,51 c -24,149 -31,177 -42,176 -6,-1 -45,-6 -86,-11 z m 74,-37 c 9,-7 13,-17 10,-23 -3,-5 -2,-14 3,-21 12,-16 16,-71 8,-97 -5,-16 -15,-20 -46,-20 -32,0 -46,7 -74,35 -18,20 -37,44 -40,55 -4,11 -11,20 -16,20 -6,0 -9,12 -7,28 3,25 7,27 53,32 73,7 91,6 109,-9 z"
       id="path20"
       style="display:inline" />
    <path
       d="m 637,3373 c -26,-80 -50,-188 -62,-280 l -7,-53 h 74 c 67,0 77,3 109,30 34,27 36,33 43,107 4,43 13,106 20,139 l 13,62 -75,33 c -42,19 -79,35 -82,37 -4,1 -19,-32 -33,-75 z m 122,3 c 33,-19 33,-20 27,-70 -4,-28 -11,-81 -15,-118 -7,-52 -14,-72 -35,-93 -28,-28 -99,-44 -111,-25 -3,6 -11,7 -17,4 -19,-12 13,207 34,231 4,5 8,15 8,22 0,8 6,29 14,48 16,38 33,38 95,1 z"
       id="path21"
       style="display:inline" />
    <path
       d="m 2270,3411 -75,-36 12,-60 c 7,-33 15,-89 19,-125 5,-47 12,-69 26,-79 14,-9 18,-20 14,-37 l -6,-24 h 93 94 l -4,33 c -14,115 -27,179 -53,262 -17,52 -34,96 -38,98 -4,2 -41,-12 -82,-32 z m 81,-21 c 2,-13 4,-22 12,-40 8,-20 44,-167 51,-209 13,-73 -73,-93 -126,-30 -26,31 -32,47 -44,129 -2,19 -7,46 -9,60 -6,39 4,64 33,82 30,18 81,23 83,8 z"
       id="path22"
       style="display:inline" />
    <path
       d="m 1454,3348 -49,-82 -84,-13 c -166,-26 -397,-125 -530,-229 -2,-2 32,-51 75,-109 l 77,-106 33,32 34,33 38,-32 39,-31 39,40 38,39 36,-35 37,-36 27,36 c 15,19 31,35 36,35 5,0 25,-14 45,-31 l 36,-32 34,33 33,32 33,-36 32,-37 39,38 39,38 31,-34 31,-34 43,23 43,24 25,-23 25,-24 41,26 c 22,15 43,27 47,27 3,0 19,-14 33,-32 l 27,-32 41,27 41,27 30,-26 30,-25 19,43 c 11,24 36,78 57,121 20,44 34,84 32,91 -3,7 -52,35 -108,64 -101,50 -253,99 -374,122 -33,6 -70,13 -82,15 -13,3 -39,33 -69,80 -26,41 -48,75 -50,75 -1,0 -24,-37 -50,-82 z m 94,-33 c 37,-52 48,-58 180,-85 94,-19 282,-76 292,-89 3,-3 31,-19 62,-35 32,-15 60,-37 63,-47 4,-12 -8,-49 -31,-97 -38,-79 -53,-97 -67,-83 -8,8 -53,1 -89,-14 -11,-4 -27,1 -44,14 -32,25 -45,26 -85,5 -24,-12 -37,-13 -61,-5 -22,8 -43,8 -71,0 -35,-9 -43,-8 -69,11 l -29,21 -44,-21 c -41,-20 -46,-20 -67,-6 -29,20 -52,20 -83,0 -17,-11 -29,-13 -38,-7 -40,32 -97,32 -118,0 -4,-5 -19,-2 -37,7 -41,21 -58,20 -93,-5 -30,-21 -38,-21 -97,3 -28,11 -34,10 -41,-1 -16,-25 -55,-3 -96,54 -22,30 -43,54 -47,55 -16,0 -7,26 14,44 42,36 244,135 328,160 88,26 102,30 183,42 38,5 54,14 77,43 17,19 30,39 30,44 0,12 23,36 36,37 5,0 24,-20 42,-45 z"
       id="path23"
       style="display:inline" />
    <path
       d="m 867,3254 c -10,-59 -15,-109 -12,-112 2,-3 10,0 17,6 23,18 192,99 236,112 23,7 40,16 37,19 -3,3 -56,19 -118,36 -62,18 -119,35 -127,39 -13,5 -19,-11 -33,-100 z m 132,45 c 45,-13 53,-34 19,-45 -13,-4 -39,-17 -59,-30 -53,-33 -75,-24 -71,30 4,44 29,70 58,61 7,-2 30,-9 53,-16 z"
       id="path24"
       style="display:inline" />
    <path
       d="m 2020,3320 c -52,-16 -104,-29 -115,-29 -29,-1 -7,-15 55,-34 30,-9 90,-34 133,-55 55,-27 76,-34 73,-23 -3,9 -10,51 -17,94 -7,44 -17,77 -23,76 -6,0 -54,-14 -106,-29 z m 98,-22 c 18,-18 15,-68 -3,-68 -21,0 -105,40 -105,50 0,10 47,28 76,29 11,1 25,-4 32,-11 z"
       id="path25"
       style="display:inline" />
    <path
       d="m 2236,2913 c -6,-66 -24,-210 -29,-236 -2,-7 154,-80 159,-74 0,1 11,31 23,67 31,95 51,197 51,263 v 57 h -99 -99 z m 173,33 c 13,-16 2,-102 -27,-209 -24,-87 -31,-94 -80,-79 -62,19 -65,26 -52,149 17,166 10,153 84,153 42,0 67,-5 75,-14 z"
       id="path26"
       style="display:inline" />
    <path
       d="m 570,2963 c 0,-92 69,-373 91,-373 5,0 43,14 85,32 65,27 75,34 70,52 -2,12 -10,59 -16,106 -6,47 -14,99 -16,116 -2,18 -14,44 -25,58 -19,24 -26,26 -105,26 -73,0 -84,-2 -84,-17 z m 161,-24 c 23,-12 36,-58 43,-152 3,-43 8,-83 12,-88 12,-20 -56,-69 -97,-69 -34,0 -73,113 -85,250 -5,52 -4,71 4,66 6,-3 13,-2 16,3 7,11 82,4 107,-10 z"
       id="path27"
       style="display:inline" />
    <path
       d="m 2136,2799 c -16,-38 -32,-72 -37,-75 -4,-2 -26,11 -47,31 l -40,35 -31,-17 c -34,-20 -40,-33 -13,-33 9,0 53,-11 97,-25 43,-13 80,-23 80,-22 3,6 24,171 22,173 -1,2 -15,-29 -31,-67 z"
       id="path28"
       style="display:inline" />
    <path
       d="m 857,2798 c 3,-18 11,-53 17,-78 l 11,-46 98,31 99,31 -37,28 -37,28 -38,-37 -38,-37 -38,56 c -20,31 -38,56 -40,56 -2,0 -1,-15 3,-32 z"
       id="path29"
       style="display:inline" />
    <path
       d="m 1285,2790 c -20,-22 -12,-24 35,-11 25,7 25,7 4,19 -18,9 -25,8 -39,-8 z"
       id="path30"
       style="display:inline" />
    <path
       d="m 1375,2724 c -16,-2 -61,-9 -98,-15 -55,-9 -67,-14 -63,-27 2,-10 10,-56 16,-103 6,-47 15,-90 18,-96 6,-9 89,0 210,23 21,4 22,8 22,114 v 110 l -37,-1 c -21,-1 -51,-4 -68,-5 z m 70,-51 c 11,-40 12,-74 2,-80 -4,-2 -4,-10 2,-17 6,-8 4,-18 -7,-33 -13,-16 -33,-22 -89,-27 -51,-5 -73,-4 -73,4 0,6 -4,9 -9,6 -5,-3 -13,25 -19,62 -14,97 -2,108 124,111 59,1 62,0 69,-26 z"
       id="path31"
       style="display:inline" />
    <path
       d="m 1540,2623 v -110 l 98,-12 c 53,-6 106,-14 118,-17 22,-6 21,-11 50,187 7,44 5,45 -153,55 l -113,7 z m 223,59 c 18,-16 24,-72 8,-72 -5,0 -7,-8 -4,-18 2,-10 -1,-30 -7,-46 l -11,-29 -76,6 c -94,7 -106,17 -108,94 -2,84 10,94 105,86 46,-3 82,-12 93,-21 z"
       id="path32"
       style="display:inline" />
    <path
       d="m 1861,2608 c -7,-51 -15,-105 -18,-120 -4,-20 -1,-28 8,-28 8,-1 53,-15 100,-33 l 86,-33 31,70 c 42,99 57,155 46,166 -7,7 -215,67 -240,70 0,0 -6,-42 -13,-92 z m 144,30 c 71,-17 75,-19 75,-42 0,-32 -30,-118 -48,-139 -15,-17 -57,-16 -87,1 -5,4 -18,8 -28,9 -43,7 -51,29 -38,106 7,39 17,75 24,79 12,7 21,6 102,-14 z"
       id="path33"
       style="display:inline" />
    <path
       d="m 1110,2678 c -85,-21 -210,-62 -210,-68 0,-19 67,-197 86,-228 2,-2 48,13 103,35 72,27 99,42 96,52 -3,7 -12,59 -20,114 -9,56 -17,102 -18,102 -1,1 -18,-2 -37,-7 z m 18,-45 c 18,-33 25,-123 12,-152 -11,-28 -67,-55 -115,-56 -22,-1 -45,17 -45,34 0,6 -4,19 -9,29 -31,61 -34,74 -25,99 8,22 20,29 79,44 91,22 93,22 103,2 z"
       id="path34"
       style="display:inline" />
    <path
       d="m 2166,2549 c -9,-32 -29,-87 -46,-121 -16,-34 -29,-62 -27,-63 1,-1 22,-13 47,-27 l 45,-25 46,61 c 26,33 61,85 78,114 l 31,52 -58,26 c -107,48 -97,50 -116,-17 z m 104,-4 c 36,-22 -54,-180 -103,-180 -18,0 -22,5 -21,30 1,17 9,48 17,70 8,22 20,52 26,67 8,22 15,26 41,23 17,-2 35,-7 40,-10 z"
       id="path35"
       style="display:inline" />
    <path
       d="m 756,2560 c -38,-16 -70,-31 -72,-33 -6,-6 87,-146 125,-190 l 33,-37 42,22 c 22,13 42,23 44,24 1,1 -13,38 -32,83 -20,44 -40,99 -46,121 -6,22 -14,40 -18,40 -4,0 -38,-14 -76,-30 z m 91,-75 c 12,-33 27,-68 33,-78 14,-24 4,-54 -20,-60 -20,-5 -25,0 -75,69 -11,15 -26,33 -33,40 -7,7 -14,26 -16,43 -3,25 1,32 23,40 49,19 63,10 88,-54 z"
       id="path36"
       style="display:inline" />
    <path
       d="m 1540,2228 c 0,-210 1,-218 19,-209 32,18 80,80 115,149 35,69 92,239 84,247 -6,7 -102,23 -165,28 l -53,4 z m 153,177 c 28,-7 29,-10 22,-51 -10,-71 -73,-211 -111,-249 -21,-21 -29,-24 -35,-13 -5,7 -9,75 -9,150 0,113 3,141 16,157 17,20 59,22 117,6 z"
       id="path37"
       style="display:inline" />
    <path
       d="m 1385,2435 c -5,-2 -30,-6 -55,-10 -72,-9 -73,-10 -41,-110 35,-112 83,-210 124,-253 64,-67 62,-73 62,164 v 214 l -40,-1 c -22,0 -44,-2 -50,-4 z m 59,-42 c 4,-9 6,-83 5,-165 l -1,-148 -24,18 c -13,9 -24,22 -24,29 0,6 -3,13 -7,15 -22,9 -83,163 -86,213 -2,37 0,40 28,46 59,13 103,10 109,-8 z"
       id="path38"
       style="display:inline" />
    <path
       d="m 1802,2326 c -26,-92 -81,-215 -120,-265 -22,-30 -23,-34 -6,-27 85,32 243,166 298,253 14,24 26,44 26,46 0,5 -59,30 -125,55 l -50,18 z m 119,12 c 3,-5 10,-10 15,-9 13,0 7,-47 -8,-63 -7,-7 -25,-26 -39,-42 -31,-34 -67,-66 -105,-91 -33,-21 -33,-23 11,92 15,39 29,79 32,90 8,30 35,47 63,40 14,-4 28,-11 31,-17 z"
       id="path39"
       style="display:inline" />
    <path
       d="m 1100,2359 c -41,-17 -77,-32 -79,-34 -6,-7 87,-120 140,-171 48,-45 177,-130 185,-122 1,2 -10,23 -26,47 -32,47 -83,172 -104,254 -7,29 -19,53 -27,54 -8,1 -48,-12 -89,-28 z m 91,-36 c 6,-16 12,-32 13,-38 2,-5 8,-23 14,-38 7,-16 12,-34 12,-42 0,-8 4,-16 9,-19 11,-7 20,-66 10,-66 -11,0 -89,68 -112,98 -12,15 -24,29 -27,32 -11,9 -40,54 -40,62 0,11 60,36 88,37 16,1 26,-7 33,-26 z"
       id="path40"
       style="display:inline" />
    <path
       d="m 2036,2272 c -39,-62 -85,-115 -134,-156 -26,-22 -38,-36 -27,-32 39,14 171,98 217,139 l 47,42 -40,22 -40,22 z"
       id="path41"
       style="display:inline" />
    <path
       d="m 920,2273 c -14,-9 -27,-18 -29,-19 -13,-11 225,-174 253,-174 3,0 -18,21 -45,47 -28,26 -69,73 -91,105 -23,32 -46,58 -52,58 -6,0 -23,-8 -36,-17 z"
       id="path42"
       style="display:inline" />
    <path
       d="m 2063,2123 c -127,-91 -348,-173 -467,-173 h -43 l -7,-296 c -4,-163 -6,-298 -4,-300 2,-1 42,13 90,32 136,54 230,75 364,81 162,7 290,-20 474,-101 12,-5 15,0 15,21 0,16 4,152 9,304 7,247 6,279 -8,308 -35,67 -144,121 -291,145 l -84,13 z m 209,-20 c 102,-33 168,-77 197,-132 10,-18 11,-76 7,-245 -7,-244 -14,-325 -26,-306 -5,8 -10,9 -14,2 -4,-7 -18,-5 -39,6 -17,9 -36,17 -42,18 -5,1 -48,12 -95,25 -163,43 -453,21 -607,-47 -31,-14 -62,-23 -69,-20 -11,4 -14,53 -14,250 0,244 0,246 23,260 12,7 44,16 71,20 91,11 316,87 316,106 0,4 11,11 24,14 14,3 31,12 38,19 39,39 64,48 125,46 33,-1 81,-8 105,-16 z"
       id="path43"
       style="display:inline" />
    <path
       d="m 810,2134 c -95,-20 -172,-51 -215,-86 -66,-55 -67,-62 -59,-404 6,-275 11,-323 28,-295 11,17 184,80 266,97 64,12 114,15 214,11 161,-6 255,-29 423,-104 10,-4 13,62 15,290 l 3,295 -70,7 c -151,15 -298,68 -433,154 -87,56 -81,55 -172,35 z m 128,-38 c 38,-31 100,-66 118,-66 8,0 13,-4 10,-8 -7,-11 201,-79 284,-93 36,-5 75,-12 88,-15 l 22,-4 v -258 c 0,-170 -4,-252 -10,-242 -6,10 -10,11 -10,3 0,-15 -22,-12 -73,10 -47,20 -98,34 -157,42 -25,3 -53,8 -64,12 -42,12 -273,4 -341,-12 -38,-9 -77,-18 -85,-20 -8,-2 -42,-15 -75,-29 -33,-14 -64,-21 -68,-17 -10,10 -18,180 -20,417 l -2,151 40,40 c 93,92 280,140 343,89 z"
       id="path44"
       style="display:inline" />
    <path
       d="m 1882,1396 c -83,-16 -203,-54 -286,-91 l -56,-25 v -85 -85 l 83,53 c 158,103 259,132 418,125 140,-7 246,-46 385,-139 l 41,-28 7,52 c 13,112 13,111 -60,146 -163,78 -369,108 -532,77 z m 348,-37 c 41,-11 89,-26 105,-34 17,-7 44,-19 62,-25 35,-13 56,-52 51,-94 l -3,-26 -80,41 c -102,52 -142,67 -235,85 -96,18 -151,18 -242,-1 -96,-21 -129,-33 -212,-78 -39,-21 -81,-40 -95,-44 -23,-6 -24,-4 -13,9 8,10 9,19 3,22 -17,11 17,60 51,75 18,7 51,21 74,31 41,19 154,45 249,59 75,11 201,2 285,-20 z"
       id="path45"
       style="display:inline" />
    <path
       d="m 880,1394 c -69,-11 -164,-41 -242,-77 l -88,-40 v -88 -89 l 70,46 c 89,57 178,99 255,119 70,18 226,20 293,4 66,-16 204,-82 263,-125 l 49,-36 v 85 85 l -45,21 c -72,34 -194,72 -275,87 -69,12 -221,16 -280,8 z m 250,-28 c 151,-29 287,-77 312,-109 19,-24 23,-62 8,-72 -6,-4 -50,13 -98,38 -48,24 -100,47 -117,52 -16,4 -37,10 -45,13 -8,3 -69,7 -135,9 -112,4 -214,-6 -254,-27 -9,-5 -31,-14 -49,-21 -18,-6 -58,-27 -89,-45 -72,-44 -93,-44 -93,-1 1,39 24,69 73,91 88,39 106,45 177,61 41,9 80,18 85,19 20,5 191,-1 225,-8 z"
       id="path46"
       style="display:inline" />
    <text
       xml:space="preserve"
       style="font-style:normal;font-variant:normal;font-weight:normal;font-stretch:normal;font-size:255px;font-family:Sans;-inkscape-font-specification:'Sans, Normal';font-variant-ligatures:normal;font-variant-caps:normal;font-variant-numeric:normal;font-variant-east-asian:normal;display:inline;opacity:1;fill:#000000;stroke:#000000;stroke-width:8;stroke-dasharray:none;stroke-opacity:1;paint-order:markers stroke fill"
       x="1394.0487"
       y="-4869.666"
       id="text56"
       transform="scale(1.0724445,-0.9324492)"><tspan
         sodipodi:role="line"
         id="tspan56"
         style="font-style:normal;font-variant:normal;font-weight:normal;font-stretch:normal;font-size:255px;font-family:sans-serif;-inkscape-font-specification:'sans-serif, ';font-variant-ligatures:normal;font-variant-caps:normal;font-variant-numeric:normal;font-variant-east-asian:normal;text-align:center;text-anchor:middle;fill:#000000;stroke-width:8.47085"
         x="0"
         y="0">ATHUGALPURA</tspan><tspan
         sodipodi:role="line"
         style="font-style:normal;font-variant:normal;font-weight:normal;font-stretch:normal;font-size:255px;font-family:sans-serif;-inkscape-font-specification:'sans-serif, ';font-variant-ligatures:normal;font-variant-caps:normal;font-variant-numeric:normal;font-variant-east-asian:normal;text-align:center;text-anchor:middle;fill:#000000;stroke-width:8.47085"
         x="0"
         y="0"
         id="tspan57">PRINCE COLLEGE</tspan></text>
    <text
       xml:space="preserve"
       style="font-style:normal;font-variant:normal;font-weight:normal;font-stretch:normal;font-size:255px;font-family:sans-serif;-inkscape-font-specification:'sans-serif, ';font-variant-ligatures:normal;font-variant-caps:normal;font-variant-numeric:normal;font-variant-east-asian:normal;text-align:center;text-anchor:middle;display:inline;opacity:1;fill:#000000;stroke:none;stroke-width:8;stroke-dasharray:none;stroke-opacity:1;paint-order:markers stroke fill"
       x="1486.5599"
       y="-356.50317"
       id="text58"
       transform="scale(1,-1)"><tspan
         sodipodi:role="line"
         id="tspan58"
         style="font-style:normal;font-variant:normal;font-weight:bold;font-stretch:normal;font-size:255px;font-family:Sans;-inkscape-font-specification:'Sans, Bold';font-variant-ligatures:normal;font-variant-caps:normal;font-variant-numeric:normal;font-variant-east-asian:normal;fill:#000000;stroke:none;stroke-width:30"
         x="0"
         y="0">KURUNEGALA</tspan></text>
  </g>
  <rect
     style="display:inline;opacity:1;fill:none;fill-rule:evenodd;stroke:#000000;stroke-width:3.43103;stroke-dasharray:none;stroke-opacity:1"
     id="rect55"
     width="296.67404"
     height="466.56897"
     x="1.6629791"
     y="1.651474" />
  <rect
     style="display:inline;opacity:1;fill:none;stroke:#000000;stroke-width:3.5;stroke-dasharray:none;stroke-opacity:1;paint-order:markers stroke fill"
     id="rect56"
     width="244.19638"
     height="344.07999"
     x="27.90181"
     y="72.396141" />
</svg>
